<svg xmlns="http://www.w3.org/2000/svg" xmlns:xlink="http://www.w3.org/1999/xlink" version="1.1" class="marks" width="444" height="364" viewBox="0 0 444 364"><rect width="444" height="364" fill="white"/><g fill="none" stroke-miterlimit="10" transform="translate(42,26)"><g class="mark-group role-frame root" role="graphics-object" aria-roledescription="group mark container"><g transform="translate(0,0)"><path class="background" aria-hidden="true" d="M0,0h0v300h0Z"/><g><g class="mark-group role-scope concat_0_group" role="graphics-object" aria-roledescription="group mark container"><g transform="translate(0,0)"><path class="background" aria-hidden="true" d="M0,0h300v300h-300Z" stroke="#ddd" stroke-width="0.1"/><g><g class="mark-group role-axis" aria-hidden="true"><g transform="translate(0.5,300.5)"><path class="background" aria-hidden="true" d="M0,0h0v0h0Z" pointer-events="none"/><g><g class="mark-rule role-axis-grid" pointer-events="none"><line transform="translate(0,-300)" x2="0" y2="300" stroke="#ddd" stroke-opacity="0.9" stroke-width="1" opacity="1"/><line transform="translate(50,-300)" x2="0" y2="300" stroke="#ddd" stroke-opacity="0.9" stroke-width="1" opacity="1"/><line transform="translate(100,-300)" x2="0" y2="300" stroke="#ddd" stroke-opacity="0.9" stroke-width="1" opacity="1"/><line transform="translate(150,-300)" x2="0" y2="300" stroke="#ddd" stroke-opacity="0.9" stroke-width="1" opacity="1"/><line transform="translate(200,-300)" x2="0" y2="300" stroke="#ddd" stroke-opacity="0.9" stroke-width="1" opacity="1"/><line transform="translate(250,-300)" x2="0" y2="300" stroke="#ddd" stroke-opacity="0.9" stroke-width="1" opacity="1"/><line transform="translate(300,-300)" x2="0" y2="300" stroke="#ddd" stroke-opacity="0.9" stroke-width="1" opacity="1"/></g></g><path class="foreground" aria-hidden="true" d="" pointer-events="none" display="none"/></g></g><g class="mark-group role-axis" aria-hidden="true"><g transform="translate(0.5,0.5)"><path class="background" aria-hidden="true" d="M0,0h0v0h0Z" pointer-events="none"/><g><g class="mark-rule role-axis-grid" pointer-events="none"><line transform="translate(0,300)" x2="300" y2="0" stroke="#ddd" stroke-opacity="0.9" stroke-width="1" opacity="1"/><line transform="translate(0,271)" x2="300" y2="0" stroke="#ddd" stroke-opacity="0.9" stroke-width="1" opacity="1"/><line transform="translate(0,243)" x2="300" y2="0" stroke="#ddd" stroke-opacity="0.9" stroke-width="1" opacity="1"/><line transform="translate(0,214)" x2="300" y2="0" stroke="#ddd" stroke-opacity="0.9" stroke-width="1" opacity="1"/><line transform="translate(0,186)" x2="300" y2="0" stroke="#ddd" stroke-opacity="0.9" stroke-width="1" opacity="1"/><line transform="translate(0,157)" x2="300" y2="0" stroke="#ddd" stroke-opacity="0.9" stroke-width="1" opacity="1"/><line transform="translate(0,129)" x2="300" y2="0" stroke="#ddd" stroke-opacity="0.9" stroke-width="1" opacity="1"/><line transform="translate(0,100)" x2="300" y2="0" stroke="#ddd" stroke-opacity="0.9" stroke-width="1" opacity="1"/><line transform="translate(0,71)" x2="300" y2="0" stroke="#ddd" stroke-opacity="0.9" stroke-width="1" opacity="1"/><line transform="translate(0,43)" x2="300" y2="0" stroke="#ddd" stroke-opacity="0.9" stroke-width="1" opacity="1"/><line transform="translate(0,14)" x2="300" y2="0" stroke="#ddd" stroke-opacity="0.9" stroke-width="1" opacity="1"/></g></g><path class="foreground" aria-hidden="true" d="" pointer-events="none" display="none"/></g></g><g class="mark-group role-axis" role="graphics-symbol" aria-roledescription="axis" aria-label="X-axis titled 'Number of Mismatches' for a linear scale with values from 0.0 to 3.0"><g transform="translate(0.5,300.5)"><path class="background" aria-hidden="true" d="M0,0h0v0h0Z" pointer-events="none"/><g><g class="mark-rule role-axis-tick" pointer-events="none"><line transform="translate(0,0)" x2="0" y2="5" stroke="#888" stroke-width="1" opacity="1"/><line transform="translate(50,0)" x2="0" y2="5" stroke="#888" stroke-width="1" opacity="1"/><line transform="translate(100,0)" x2="0" y2="5" stroke="#888" stroke-width="1" opacity="1"/><line transform="translate(150,0)" x2="0" y2="5" stroke="#888" stroke-width="1" opacity="1"/><line transform="translate(200,0)" x2="0" y2="5" stroke="#888" stroke-width="1" opacity="1"/><line transform="translate(250,0)" x2="0" y2="5" stroke="#888" stroke-width="1" opacity="1"/><line transform="translate(300,0)" x2="0" y2="5" stroke="#888" stroke-width="1" opacity="1"/></g><g class="mark-text role-axis-label" pointer-events="none"><text text-anchor="start" transform="translate(0,15)" font-family="sans-serif" font-size="10px" fill="#000" opacity="1">0.0</text><text text-anchor="middle" transform="translate(50,15)" font-family="sans-serif" font-size="10px" fill="#000" opacity="1">0.5</text><text text-anchor="middle" transform="translate(100,15)" font-family="sans-serif" font-size="10px" fill="#000" opacity="1">1.0</text><text text-anchor="middle" transform="translate(150,15)" font-family="sans-serif" font-size="10px" fill="#000" opacity="1">1.5</text><text text-anchor="middle" transform="translate(200,15)" font-family="sans-serif" font-size="10px" fill="#000" opacity="1">2.0</text><text text-anchor="middle" transform="translate(250,15)" font-family="sans-serif" font-size="10px" fill="#000" opacity="1">2.5</text><text text-anchor="end" transform="translate(300,15)" font-family="sans-serif" font-size="10px" fill="#000" opacity="1">3.0</text></g><g class="mark-rule role-axis-domain" pointer-events="none"><line transform="translate(0,0)" x2="300" y2="0" stroke="#888" stroke-width="1" opacity="1"/></g><g class="mark-text role-axis-title" pointer-events="none"><text text-anchor="middle" transform="translate(150,30)" font-family="sans-serif" font-size="11px" font-weight="bold" fill="#000" opacity="1">Number of Mismatches</text></g></g><path class="foreground" aria-hidden="true" d="" pointer-events="none" display="none"/></g></g><g class="mark-group role-axis" role="graphics-symbol" aria-roledescription="axis" aria-label="Y-axis titled 'true_positives / (true_positives + false_negatives)' for a linear scale with values from 0.0 to 1.1"><g transform="translate(0.5,0.5)"><path class="background" aria-hidden="true" d="M0,0h0v0h0Z" pointer-events="none"/><g><g class="mark-rule role-axis-tick" pointer-events="none"><line transform="translate(0,300)" x2="-5" y2="0" stroke="#888" stroke-width="1" opacity="1"/><line transform="translate(0,271)" x2="-5" y2="0" stroke="#888" stroke-width="1" opacity="1"/><line transform="translate(0,243)" x2="-5" y2="0" stroke="#888" stroke-width="1" opacity="1"/><line transform="translate(0,214)" x2="-5" y2="0" stroke="#888" stroke-width="1" opacity="1"/><line transform="translate(0,186)" x2="-5" y2="0" stroke="#888" stroke-width="1" opacity="1"/><line transform="translate(0,157)" x2="-5" y2="0" stroke="#888" stroke-width="1" opacity="1"/><line transform="translate(0,129)" x2="-5" y2="0" stroke="#888" stroke-width="1" opacity="1"/><line transform="translate(0,100)" x2="-5" y2="0" stroke="#888" stroke-width="1" opacity="1"/><line transform="translate(0,71)" x2="-5" y2="0" stroke="#888" stroke-width="1" opacity="1"/><line transform="translate(0,43)" x2="-5" y2="0" stroke="#888" stroke-width="1" opacity="1"/><line transform="translate(0,14)" x2="-5" y2="0" stroke="#888" stroke-width="1" opacity="1"/></g><g class="mark-text role-axis-label" pointer-events="none"><text text-anchor="end" transform="translate(-7,303)" font-family="sans-serif" font-size="10px" fill="#000" opacity="1">0.0</text><text text-anchor="end" transform="translate(-7,274.42857142857144)" font-family="sans-serif" font-size="10px" fill="#000" opacity="1">0.1</text><text text-anchor="end" transform="translate(-7,245.85714285714286)" font-family="sans-serif" font-size="10px" fill="#000" opacity="1">0.2</text><text text-anchor="end" transform="translate(-7,217.28571428571428)" font-family="sans-serif" font-size="10px" fill="#000" opacity="1">0.3</text><text text-anchor="end" transform="translate(-7,188.71428571428572)" font-family="sans-serif" font-size="10px" fill="#000" opacity="1">0.4</text><text text-anchor="end" transform="translate(-7,160.14285714285714)" font-family="sans-serif" font-size="10px" fill="#000" opacity="1">0.5</text><text text-anchor="end" transform="translate(-7,131.57142857142858)" font-family="sans-serif" font-size="10px" fill="#000" opacity="1">0.6</text><text text-anchor="end" transform="translate(-7,103.00000000000001)" font-family="sans-serif" font-size="10px" fill="#000" opacity="1">0.7</text><text text-anchor="end" transform="translate(-7,74.42857142857144)" font-family="sans-serif" font-size="10px" fill="#000" opacity="1">0.8</text><text text-anchor="end" transform="translate(-7,45.85714285714287)" font-family="sans-serif" font-size="10px" fill="#000" opacity="1">0.9</text><text text-anchor="end" transform="translate(-7,17.285714285714302)" font-family="sans-serif" font-size="10px" fill="#000" opacity="1">1.0</text></g><g class="mark-rule role-axis-domain" pointer-events="none"><line transform="translate(0,300)" x2="0" y2="-300" stroke="#888" stroke-width="1" opacity="1"/></g><g class="mark-text role-axis-title" pointer-events="none"><text text-anchor="middle" transform="translate(-24.9013671875,150) rotate(-90) translate(0,-2)" font-family="sans-serif" font-size="11px" font-weight="bold" fill="#000" opacity="1">true_positives / (true_positives + false_negatives)</text></g></g><path class="foreground" aria-hidden="true" d="" pointer-events="none" display="none"/></g></g><g class="mark-group role-scope concat_0_layer_0_pathgroup" role="graphics-object" aria-roledescription="group mark container"><g transform="translate(0,0)"><path class="background" aria-hidden="true" d="M0,0h300v300h-300Z"/><g><g class="mark-trail role-mark concat_0_layer_0_marks" role="graphics-object" aria-roledescription="trail mark container"><path aria-label="Number of Mismatches: 0; true_positives / (true_positives + false_negatives): 0.999997332041; tool: bowtie1; mismatches: 0; recall: 0.999997332041" role="graphics-symbol" aria-roledescription="trail mark" d="M0.047870270492340335,13.287622998134024L100.04787027049234,18.08014437867445A1,1,0,1,1,99.95212972950766,20.077851501556072L-0.047870270492340335,15.285330121015646A1,1,0,1,1,0.04787027049234047,13.287622998134024ZM100.2207942596955,18.103677533845854L200.22079425969548,40.741803248863775A1,1,0,1,1,199.77920574030452,42.69244406140258L99.7792057403045,20.05431834638467A1,1,0,0,1,100.2207942596955,18.103677533845854ZM200.06362133470782,40.71914954436176L300.0636213347078,47.09419815746174A1,1,0,1,1,299.9363786652922,49.09014637900457L199.93637866529218,42.715097765904595A1,1,0,0,1,200.06362133470782,40.71914954436176Z" fill="#e45756"/></g></g><path class="foreground" aria-hidden="true" d="" display="none"/></g><g transform="translate(0,0)"><path class="background" aria-hidden="true" d="M0,0h300v300h-300Z"/><g><g class="mark-trail role-mark concat_0_layer_0_marks" role="graphics-object" aria-roledescription="trail mark container"><path aria-label="Number of Mismatches: 0; true_positives / (true_positives + false_negatives): 0.250979955983; tool: strobealign; mismatches: 0; recall: 0.250979955983" role="graphics-symbol" aria-roledescription="trail mark" d="M0.37930592298900334,227.36616982695938L100.379305922989,268.36019120542556A1,1,0,1,1,99.620694077011,270.2107338466911L-0.37930592298900334,229.21671246822484A1,1,0,0,1,0.37930592298900284,227.36616982695938ZM100.21523553256652,268.30890035931174L200.21523553256654,290.34902641534967A1,1,0,1,1,199.78476446743346,292.30215074884285L99.78476446743348,270.2620246928049A1,1,0,1,1,100.21523553256652,268.30890035931174ZM200.07125605314755,290.3281305253892L300.0712560531476,297.47189488404297A1,1,0,1,1,299.9287439468524,299.46681099745706L199.92874394685245,292.3230466388033A1,1,0,1,1,200.07125605314755,290.3281305253892Z" fill="#9d755d"/></g></g><path class="foreground" aria-hidden="true" d="" display="none"/></g><g transform="translate(0,0)"><path class="background" aria-hidden="true" d="M0,0h300v300h-300Z"/><g><g class="mark-trail role-mark concat_0_layer_0_marks" role="graphics-object" aria-roledescription="trail mark container"><path aria-label="Number of Mismatches: 0; true_positives / (true_positives + false_negatives): 0.999990395349; tool: bowtie2; mismatches: 0; recall: 0.999990395349" role="graphics-symbol" aria-roledescription="trail mark" d="M0.019808198588408096,13.288654673225516L100.01980819858841,15.269863248384848A1,1,0,1,1,99.98019180141159,17.269470845158455L-0.019808198588408096,15.288262269999123A1,1,0,1,1,0.019808198588408578,13.288654673225516ZM100.85168872066183,15.745619030748866L200.85168872066183,178.26674202356952A1,1,0,1,1,199.14831127933817,179.3148380556151L99.14831127933817,16.793715062794437A1,1,0,1,1,100.85168872066183,15.745619030748866ZM200.5690149642867,177.96846287208672L300.56901496428674,247.1641536836567A1,1,0,1,1,299.43098503571326,248.8088080186679L199.4309850357133,179.6131172070979A1,1,0,1,1,200.5690149642867,177.96846287208672Z" fill="#72b7b2"/></g></g><path class="foreground" aria-hidden="true" d="" display="none"/></g><g transform="translate(0,0)"><path class="background" aria-hidden="true" d="M0,0h300v300h-300Z"/><g><g class="mark-trail role-mark concat_0_layer_0_marks" role="graphics-object" aria-roledescription="trail mark container"><path aria-label="Number of Mismatches: 0; true_positives / (true_positives + false_negatives): 0.999983221505; tool: mummer4; mismatches: 0; recall: 0.999983221505" role="graphics-symbol" aria-roledescription="trail mark" d="M0.6982663482616259,13.574670096175403L100.69826634826163,111.11996724708195A1,1,0,1,1,99.30173365173837,112.55164333738361L-0.6982663482616259,15.006346186477082A1,1,0,1,1,0.6982663482616258,13.574670096175403ZM100.75688565833255,111.18225797167328L200.75688565833255,226.9941715886673A1,1,0,1,1,199.24311434166745,228.30126622978634L99.24311434166745,112.48935261279227A1,1,0,1,1,100.75688565833255,111.18225797167328ZM200.5187092159366,226.79276818006028L300.5187092159366,287.4640090177957A1,1,0,1,1,299.4812907840634,289.1739104761288L199.4812907840634,228.50266963839337A1,1,0,1,1,200.5187092159366,226.79276818006028Z" fill="#ff9da6"/></g></g><path class="foreground" aria-hidden="true" d="" display="none"/></g><g transform="translate(0,0)"><path class="background" aria-hidden="true" d="M0,0h300v300h-300Z"/><g><g class="mark-trail role-mark concat_0_layer_0_marks" role="graphics-object" aria-roledescription="trail mark container"><path aria-label="Number of Mismatches: 0; true_positives / (true_positives + false_negatives): 0.999059633556; tool: blastn; mismatches: 0; recall: 0.999059633556" role="graphics-symbol" aria-roledescription="trail mark" d="M0.7517949502084015,13.894993450926739L100.7517949502084,127.90749185450956A1,1,0,1,1,99.2482050497916,129.22628577751823L-0.7517949502084015,15.213787373935405A1,1,0,1,1,0.7517949502084013,13.894993450926739ZM100.69650826482078,127.84934004621746L200.69650826482078,224.91706479730055A1,1,0,1,1,199.30349173517922,226.3521623368934L99.30349173517922,129.2844375858103A1,1,0,0,1,100.69650826482078,127.84934004621746ZM200.37265451686275,224.70664341075477L300.3726545168627,264.8646715882603A1,1,0,1,1,299.6273454831373,266.72061190094473L199.62734548313725,226.5625837234392A1,1,0,1,1,200.37265451686275,224.70664341075477Z" fill="#f58518"/></g></g><path class="foreground" aria-hidden="true" d="" display="none"/></g><g transform="translate(0,0)"><path class="background" aria-hidden="true" d="M0,0h300v300h-300Z"/><g><g class="mark-trail role-mark concat_0_layer_0_marks" role="graphics-object" aria-roledescription="trail mark container"><path aria-label="Number of Mismatches: 0; true_positives / (true_positives + false_negatives): 0.357691122617; tool: lexicmap; mismatches: 0; recall: 0.357691122617" role="graphics-symbol" aria-roledescription="trail mark" d="M0.6369785983455725,197.03165490926028L100.63697859834558,279.66155457933394A1,1,0,1,1,99.36302140165442,281.2033175510643L-0.6369785983455725,198.57341788099063A1,1,0,1,1,0.6369785983455724,197.03165490926028ZM100.09661802544284,279.4371145306388L200.09661802544284,289.14433195616317A1,1,0,1,1,199.90338197455716,291.13497502528384L99.90338197455716,281.42775759975945A1,1,0,1,1,100.09661802544284,279.4371145306388ZM200.02397600898183,289.13994095654516L300.02397600898183,291.53823128122593A1,1,0,1,1,299.97602399101817,293.5376563495826L199.97602399101817,291.13936602490185A1,1,0,1,1,200.02397600898183,289.13994095654516Z" fill="#54a24b"/></g></g><path class="foreground" aria-hidden="true" d="" display="none"/></g><g transform="translate(0,0)"><path class="background" aria-hidden="true" d="M0,0h300v300h-300Z"/><g><g class="mark-trail role-mark concat_0_layer_0_marks" role="graphics-object" aria-roledescription="trail mark container"><path aria-label="Number of Mismatches: 0; true_positives / (true_positives + false_negatives): 0.888021334656; tool: bbmap_skimmer; mismatches: 0; recall: 0.888021334656" role="graphics-symbol" aria-roledescription="trail mark" d="M0.8918576747928899,45.827302532486236L100.89185767479289,243.00303905193454A1,1,0,1,1,99.10814232520711,243.90767132620516L-0.8918576747928899,46.731934806756875A1,1,0,1,1,0.8918576747928898,45.827302532486236ZM100.30768425926719,242.50386667279696L200.30768425926718,274.8410156772246A1,1,0,1,1,199.69231574073282,276.7439927097704L99.69231574073281,244.40684370534274A1,1,0,1,1,100.30768425926719,242.50386667279696ZM200.13148982436954,274.8011866731806L300.1314898243695,288.0653348068179A1,1,0,1,1,299.8685101756305,290.04796984745167L199.86851017563046,276.7838217138144A1,1,0,1,1,200.13148982436954,274.8011866731806Z" fill="#4c78a8"/></g></g><path class="foreground" aria-hidden="true" d="" display="none"/></g><g transform="translate(0,0)"><path class="background" aria-hidden="true" d="M0,0h300v300h-300Z"/><g><g class="mark-trail role-mark concat_0_layer_0_marks" role="graphics-object" aria-roledescription="trail mark container"><path aria-label="Number of Mismatches: 0; true_positives / (true_positives + false_negatives): 0.000302961511023; tool: minimap2; mismatches: 0; recall: 0.000302961511023" role="graphics-symbol" aria-roledescription="trail mark" d="M0.00061120924017395,298.9134397550676L100.00061120924018,298.9745606905017A1,1,0,1,1,99.99938879075982,300.9745603169249L-0.00061120924017395,300.91343938149083A1,1,0,1,1,0.0006112092401737698,298.9134397550676ZM100.00010020929955,298.97456050873427L200.00010020929955,298.9845814387394A1,1,0,1,1,199.99989979070045,300.9845814286974L99.99989979070045,300.9745604986923A1,1,0,1,1,100.00010020929955,298.97456050873427ZM200.00008619236567,298.98458143743295L300.00008619236564,298.99320067403136A1,1,0,1,1,299.99991380763436,300.99320066660226L199.99991380763433,300.98458143000386A1,1,0,1,1,200.00008619236567,298.98458143743295Z" fill="#eeca3b"/></g></g><path class="foreground" aria-hidden="true" d="" display="none"/></g><g transform="translate(0,0)"><path class="background" aria-hidden="true" d="M0,0h300v300h-300Z"/><g><g class="mark-trail role-mark concat_0_layer_0_marks" role="graphics-object" aria-roledescription="trail mark container"><path aria-label="Number of Mismatches: 0; true_positives / (true_positives + false_negatives): 0.936944697785; tool: mmseqs2; mismatches: 0; recall: 0.936944697785" role="graphics-symbol" aria-roledescription="trail mark" d="M0.35529775834925226,31.366761740973196L100.35529775834925,69.37655586503807A1,1,0,1,1,99.64470224165075,71.2460622201083L-0.35529775834925226,33.236268096043425A1,1,0,1,1,0.355297758349252,31.366761740973192ZM100.59230482334566,69.50559507580739L200.59230482334564,143.0186341662452A1,1,0,1,1,199.40769517665436,144.6300620997768L99.40769517665434,71.11702300933898A1,1,0,1,1,100.59230482334566,69.50559507580739ZM200.6865447643501,143.09726059595408L300.68654476435006,237.52120948236328A1,1,0,1,1,299.31345523564994,238.9753845564771L199.3134552356499,144.55143567006792A1,1,0,1,1,200.6865447643501,143.09726059595408Z" fill="#b279a2"/></g></g><path class="foreground" aria-hidden="true" d="" display="none"/></g></g><g class="mark-symbol role-mark concat_0_layer_1_marks" role="graphics-object" aria-roledescription="symbol mark container"><path aria-label="Number of Mismatches: 0; true_positives / (true_positives + false_negatives): 0.999997332041; tool: bowtie1; mismatches: 0; recall: 0.999997332041" role="graphics-symbol" aria-roledescription="point" transform="translate(0,14.286476559574835)" d="M0,-2.372L-2.739,2.372L2.739,2.372Z" fill="#e45756" stroke-width="2" opacity="1"/><path aria-label="Number of Mismatches: 0; true_positives / (true_positives + false_negatives): 0.250979955983; tool: strobealign; mismatches: 0; recall: 0.250979955983" role="graphics-symbol" aria-roledescription="point" transform="translate(0,228.2914411475921)" d="M2.739,0A2.739,2.739,0,1,1,-2.739,0A2.739,2.739,0,1,1,2.739,0" fill="#9d755d" stroke-width="2" opacity="1"/><path aria-label="Number of Mismatches: 0; true_positives / (true_positives + false_negatives): 0.999990395349; tool: bowtie2; mismatches: 0; recall: 0.999990395349" role="graphics-symbol" aria-roledescription="point" transform="translate(0,14.28845847161232)" d="M-2.739,-1.095L-2.739,1.095L-1.095,1.095L-1.095,2.739L1.095,2.739L1.095,1.095L2.739,1.095L2.739,-1.095L1.095,-1.095L1.095,-2.739L-1.095,-2.739L-1.095,-1.095Z" fill="#72b7b2" stroke-width="2" opacity="1"/><path aria-label="Number of Mismatches: 0; true_positives / (true_positives + false_negatives): 0.999983221505; tool: mummer4; mismatches: 0; recall: 0.999983221505" role="graphics-symbol" aria-roledescription="point" transform="translate(0,14.290508141326242)" d="M-2.372,0L2.372,-2.739L2.372,2.739Z" fill="#ff9da6" stroke-width="2" opacity="1"/><path aria-label="Number of Mismatches: 0; true_positives / (true_positives + false_negatives): 0.999059633556; tool: blastn; mismatches: 0; recall: 0.999059633556" role="graphics-symbol" aria-roledescription="point" transform="translate(0,14.554390412431072)" d="M-2.739,-2.739h5.477v5.477h-5.477Z" fill="#f58518" stroke-width="2" opacity="1"/><path aria-label="Number of Mismatches: 0; true_positives / (true_positives + false_negatives): 0.357691122617; tool: lexicmap; mismatches: 0; recall: 0.357691122617" role="graphics-symbol" aria-roledescription="point" transform="translate(0,197.80253639512546)" d="M-2.739,0L0,-2.739L2.739,0L0,2.739Z" fill="#54a24b" stroke-width="2" opacity="1"/><path aria-label="Number of Mismatches: 0; true_positives / (true_positives + false_negatives): 0.888021334656; tool: bbmap_skimmer; mismatches: 0; recall: 0.888021334656" role="graphics-symbol" aria-roledescription="point" transform="translate(0,46.279618669621556)" d="M2.739,0A2.739,2.739,0,1,1,-2.739,0A2.739,2.739,0,1,1,2.739,0" fill="#4c78a8" stroke-width="2" opacity="1"/><path aria-label="Number of Mismatches: 0; true_positives / (true_positives + false_negatives): 0.000302961511023; tool: minimap2; mismatches: 0; recall: 0.000302961511023" role="graphics-symbol" aria-roledescription="point" transform="translate(0,299.9134395682792)" d="M2.372,0L-2.372,-2.739L-2.372,2.739Z" fill="#eeca3b" stroke-width="2" opacity="1"/><path aria-label="Number of Mismatches: 0; true_positives / (true_positives + false_negatives): 0.936944697785; tool: mmseqs2; mismatches: 0; recall: 0.936944697785" role="graphics-symbol" aria-roledescription="point" transform="translate(0,32.30151491850831)" d="M0,2.372L-2.739,-2.372L2.739,-2.372Z" fill="#b279a2" stroke-width="2" opacity="1"/><path aria-label="Number of Mismatches: 1; true_positives / (true_positives + false_negatives): 0.98322350721; tool: bowtie1; mismatches: 1; recall: 0.98322350721" role="graphics-symbol" aria-roledescription="point" transform="translate(100,19.07899794011526)" d="M0,-2.372L-2.739,2.372L2.739,2.372Z" fill="#e45756" stroke-width="2" opacity="1"/><path aria-label="Number of Mismatches: 1; true_positives / (true_positives + false_negatives): 0.107500881159; tool: strobealign; mismatches: 1; recall: 0.107500881159" role="graphics-symbol" aria-roledescription="point" transform="translate(100,269.2854625260583)" d="M2.739,0A2.739,2.739,0,1,1,-2.739,0A2.739,2.739,0,1,1,2.739,0" fill="#9d755d" stroke-width="2" opacity="1"/><path aria-label="Number of Mismatches: 1; true_positives / (true_positives + false_negatives): 0.993056165336; tool: bowtie2; mismatches: 1; recall: 0.993056165336" role="graphics-symbol" aria-roledescription="point" transform="translate(100,16.26966704677165)" d="M-2.739,-1.095L-2.739,1.095L-1.095,1.095L-1.095,2.739L1.095,2.739L1.095,1.095L2.739,1.095L2.739,-1.095L1.095,-1.095L1.095,-2.739L-1.095,-2.739L-1.095,-1.095Z" fill="#72b7b2" stroke-width="2" opacity="1"/><path aria-label="Number of Mismatches: 1; true_positives / (true_positives + false_negatives): 0.658574681477; tool: mummer4; mismatches: 1; recall: 0.658574681477" role="graphics-symbol" aria-roledescription="point" transform="translate(100,111.83580529223278)" d="M-2.372,0L2.372,-2.739L2.372,2.739Z" fill="#ff9da6" stroke-width="2" opacity="1"/><path aria-label="Number of Mismatches: 1; true_positives / (true_positives + false_negatives): 0.600015889144; tool: blastn; mismatches: 1; recall: 0.600015889144" role="graphics-symbol" aria-roledescription="point" transform="translate(100,128.5668888160139)" d="M-2.739,-2.739h5.477v5.477h-5.477Z" fill="#f58518" stroke-width="2" opacity="1"/><path aria-label="Number of Mismatches: 1; true_positives / (true_positives + false_negatives): 0.0684864737718; tool: lexicmap; mismatches: 1; recall: 0.0684864737718" role="graphics-symbol" aria-roledescription="point" transform="translate(100,280.4324360651991)" d="M-2.739,0L0,-2.739L2.739,0L0,2.739Z" fill="#54a24b" stroke-width="2" opacity="1"/><path aria-label="Number of Mismatches: 1; true_positives / (true_positives + false_negatives): 0.197906256838; tool: bbmap_skimmer; mismatches: 1; recall: 0.197906256838" role="graphics-symbol" aria-roledescription="point" transform="translate(100,243.45535518906985)" d="M2.739,0A2.739,2.739,0,1,1,-2.739,0A2.739,2.739,0,1,1,2.739,0" fill="#4c78a8" stroke-width="2" opacity="1"/><path aria-label="Number of Mismatches: 1; true_positives / (true_positives + false_negatives): 0.0000890382370036; tool: minimap2; mismatches: 1; recall: 0.0000890382370036" role="graphics-symbol" aria-roledescription="point" transform="translate(100,299.9745605037133)" d="M2.372,0L-2.372,-2.739L-2.372,2.739Z" fill="#eeca3b" stroke-width="2" opacity="1"/><path aria-label="Number of Mismatches: 1; true_positives / (true_positives + false_negatives): 0.803910418351; tool: mmseqs2; mismatches: 1; recall: 0.803910418351" role="graphics-symbol" aria-roledescription="point" transform="translate(100,70.31130904257319)" d="M0,2.372L-2.739,-2.372L2.739,-2.372Z" fill="#b279a2" stroke-width="2" opacity="1"/><path aria-label="Number of Mismatches: 2; true_positives / (true_positives + false_negatives): 0.903990067207; tool: bowtie1; mismatches: 2; recall: 0.903990067207" role="graphics-symbol" aria-roledescription="point" transform="translate(200,41.71712365513318)" d="M0,-2.372L-2.739,2.372L2.739,2.372Z" fill="#e45756" stroke-width="2" opacity="1"/><path aria-label="Number of Mismatches: 2; true_positives / (true_positives + false_negatives): 0.0303604399627; tool: strobealign; mismatches: 2; recall: 0.0303604399627" role="graphics-symbol" aria-roledescription="point" transform="translate(200,291.32558858209626)" d="M2.739,0A2.739,2.739,0,1,1,-2.739,0A2.739,2.739,0,1,1,2.739,0" fill="#9d755d" stroke-width="2" opacity="1"/><path aria-label="Number of Mismatches: 2; true_positives / (true_positives + false_negatives): 0.424232234861; tool: bowtie2; mismatches: 2; recall: 0.424232234861" role="graphics-symbol" aria-roledescription="point" transform="translate(200,178.7907900395923)" d="M-2.739,-1.095L-2.739,1.095L-1.095,1.095L-1.095,2.739L1.095,2.739L1.095,1.095L2.739,1.095L2.739,-1.095L1.095,-1.095L1.095,-2.739L-1.095,-2.739L-1.095,-1.095Z" fill="#72b7b2" stroke-width="2" opacity="1"/><path aria-label="Number of Mismatches: 2; true_positives / (true_positives + false_negatives): 0.253232983818; tool: mummer4; mismatches: 2; recall: 0.253232983818" role="graphics-symbol" aria-roledescription="point" transform="translate(200,227.64771890922682)" d="M-2.372,0L2.372,-2.739L2.372,2.739Z" fill="#ff9da6" stroke-width="2" opacity="1"/><path aria-label="Number of Mismatches: 2; true_positives / (true_positives + false_negatives): 0.260278852515; tool: blastn; mismatches: 2; recall: 0.260278852515" role="graphics-symbol" aria-roledescription="point" transform="translate(200,225.63461356709698)" d="M-2.739,-2.739h5.477v5.477h-5.477Z" fill="#f58518" stroke-width="2" opacity="1"/><path aria-label="Number of Mismatches: 2; true_positives / (true_positives + false_negatives): 0.0345112127825; tool: lexicmap; mismatches: 2; recall: 0.0345112127825" role="graphics-symbol" aria-roledescription="point" transform="translate(200,290.1396534907235)" d="M-2.739,0L0,-2.739L2.739,0L0,2.739Z" fill="#54a24b" stroke-width="2" opacity="1"/><path aria-label="Number of Mismatches: 2; true_positives / (true_positives + false_negatives): 0.0847262353228; tool: bbmap_skimmer; mismatches: 2; recall: 0.0847262353228" role="graphics-symbol" aria-roledescription="point" transform="translate(200,275.7925041934975)" d="M2.739,0A2.739,2.739,0,1,1,-2.739,0A2.739,2.739,0,1,1,2.739,0" fill="#4c78a8" stroke-width="2" opacity="1"/><path aria-label="Number of Mismatches: 2; true_positives / (true_positives + false_negatives): 0.0000539649819856; tool: minimap2; mismatches: 2; recall: 0.0000539649819856" role="graphics-symbol" aria-roledescription="point" transform="translate(200,299.9845814337184)" d="M2.372,0L-2.372,-2.739L-2.372,2.739Z" fill="#eeca3b" stroke-width="2" opacity="1"/><path aria-label="Number of Mismatches: 2; true_positives / (true_positives + false_negatives): 0.546614781534; tool: mmseqs2; mismatches: 2; recall: 0.546614781534" role="graphics-symbol" aria-roledescription="point" transform="translate(200,143.824348133011)" d="M0,2.372L-2.739,-2.372L2.739,-2.372Z" fill="#b279a2" stroke-width="2" opacity="1"/><path aria-label="Number of Mismatches: 3; true_positives / (true_positives + false_negatives): 0.881677397061; tool: bowtie1; mismatches: 3; recall: 0.881677397061" role="graphics-symbol" aria-roledescription="point" transform="translate(300,48.092172268233156)" d="M0,-2.372L-2.739,2.372L2.739,2.372Z" fill="#e45756" stroke-width="2" opacity="1"/><path aria-label="Number of Mismatches: 3; true_positives / (true_positives + false_negatives): 0.00535726470738; tool: strobealign; mismatches: 3; recall: 0.00535726470738" role="graphics-symbol" aria-roledescription="point" transform="translate(300,298.46935294075)" d="M2.739,0A2.739,2.739,0,1,1,-2.739,0A2.739,2.739,0,1,1,2.739,0" fill="#9d755d" stroke-width="2" opacity="1"/><path aria-label="Number of Mismatches: 3; true_positives / (true_positives + false_negatives): 0.182047317021; tool: bowtie2; mismatches: 3; recall: 0.182047317021" role="graphics-symbol" aria-roledescription="point" transform="translate(300,247.9864808511623)" d="M-2.739,-1.095L-2.739,1.095L-1.095,1.095L-1.095,2.739L1.095,2.739L1.095,1.095L2.739,1.095L2.739,-1.095L1.095,-1.095L1.095,-2.739L-1.095,-2.739L-1.095,-1.095Z" fill="#72b7b2" stroke-width="2" opacity="1"/><path aria-label="Number of Mismatches: 3; true_positives / (true_positives + false_negatives): 0.0408836408856; tool: mummer4; mismatches: 3; recall: 0.0408836408856" role="graphics-symbol" aria-roledescription="point" transform="translate(300,288.31895974696226)" d="M-2.372,0L2.372,-2.739L2.372,2.739Z" fill="#ff9da6" stroke-width="2" opacity="1"/><path aria-label="Number of Mismatches: 3; true_positives / (true_positives + false_negatives): 0.119725753894; tool: blastn; mismatches: 3; recall: 0.119725753894" role="graphics-symbol" aria-roledescription="point" transform="translate(300,265.7926417446025)" d="M-2.739,-2.739h5.477v5.477h-5.477Z" fill="#f58518" stroke-width="2" opacity="1"/><path aria-label="Number of Mismatches: 3; true_positives / (true_positives + false_negatives): 0.0261171966461; tool: lexicmap; mismatches: 3; recall: 0.0261171966461" role="graphics-symbol" aria-roledescription="point" transform="translate(300,292.5379438154043)" d="M-2.739,0L0,-2.739L2.739,0L0,2.739Z" fill="#54a24b" stroke-width="2" opacity="1"/><path aria-label="Number of Mismatches: 3; true_positives / (true_positives + false_negatives): 0.038301716855; tool: bbmap_skimmer; mismatches: 3; recall: 0.038301716855" role="graphics-symbol" aria-roledescription="point" transform="translate(300,289.05665232713477)" d="M2.739,0A2.739,2.739,0,1,1,-2.739,0A2.739,2.739,0,1,1,2.739,0" fill="#4c78a8" stroke-width="2" opacity="1"/><path aria-label="Number of Mismatches: 3; true_positives / (true_positives + false_negatives): 0.0000237976538913; tool: minimap2; mismatches: 3; recall: 0.0000237976538913" role="graphics-symbol" aria-roledescription="point" transform="translate(300,299.9932006703168)" d="M2.372,0L-2.372,-2.739L-2.372,2.739Z" fill="#eeca3b" stroke-width="2" opacity="1"/><path aria-label="Number of Mismatches: 3; true_positives / (true_positives + false_negatives): 0.216130960432; tool: mmseqs2; mismatches: 3; recall: 0.216130960432" role="graphics-symbol" aria-roledescription="point" transform="translate(300,238.2482970194202)" d="M0,2.372L-2.739,-2.372L2.739,-2.372Z" fill="#b279a2" stroke-width="2" opacity="1"/></g><g class="mark-group role-title"><g transform="translate(150,-20)"><path class="background" aria-hidden="true" d="M0,0h0v0h0Z" pointer-events="none"/><g><g class="mark-text role-title-text" role="graphics-symbol" aria-roledescription="title" aria-label="Title text 'Recall'" pointer-events="none"><text text-anchor="middle" transform="translate(0,13)" font-family="sans-serif" font-size="16px" font-weight="bold" fill="#000" opacity="1">Recall</text></g></g><path class="foreground" aria-hidden="true" d="" pointer-events="none" display="none"/></g></g></g><path class="foreground" aria-hidden="true" d="" display="none"/></g></g><g class="mark-group role-legend" role="graphics-symbol" aria-roledescription="legend" aria-label="Symbol legend titled 'Tool' for shape and fill color with 9 values: bbmap_skimmer, blastn, bowtie1, bowtie2, lexicmap, ending with strobealign"><g transform="translate(303,0)"><path class="background" aria-hidden="true" d="M0,0h94v189h-94Z" pointer-events="none"/><g><g class="mark-group role-legend-entry"><g transform="translate(0,16)"><path class="background" aria-hidden="true" d="M0,0h0v0h0Z" pointer-events="none"/><g><g class="mark-group role-scope" role="graphics-object" aria-roledescription="group mark container"><g transform="translate(0,0)"><path class="background" aria-hidden="true" d="M0,0h93.9111328125v16.39202437604511h-93.9111328125Z" pointer-events="none" opacity="1"/><g><g class="mark-symbol role-legend-symbol" pointer-events="none"><path transform="translate(8,8)" d="M6.892,0A6.892,6.892,0,1,1,-6.892,0A6.892,6.892,0,1,1,6.892,0" fill="#4c78a8" fill-opacity="0.9" stroke="tool:N" stroke-width="1.5" opacity="1"/></g><g class="mark-text role-legend-label" pointer-events="none"><text text-anchor="start" transform="translate(20,11)" font-family="sans-serif" font-size="10px" fill="#000" opacity="1">bbmap_skimmer</text></g></g><path class="foreground" aria-hidden="true" d="" pointer-events="none" display="none"/></g><g transform="translate(0,20)"><path class="background" aria-hidden="true" d="M0,0h93.9111328125v16.392024376045114h-93.9111328125Z" pointer-events="none" opacity="1"/><g><g class="mark-symbol role-legend-symbol" pointer-events="none"><path transform="translate(8,8)" d="M-6.892,-6.892h13.784v13.784h-13.784Z" fill="#f58518" fill-opacity="0.9" stroke="tool:N" stroke-width="1.5" opacity="1"/></g><g class="mark-text role-legend-label" pointer-events="none"><text text-anchor="start" transform="translate(20,11)" font-family="sans-serif" font-size="10px" fill="#000" opacity="1">blastn</text></g></g><path class="foreground" aria-hidden="true" d="" pointer-events="none" display="none"/></g><g transform="translate(0,39)"><path class="background" aria-hidden="true" d="M0,0h93.9111328125v15.46866819315666h-93.9111328125Z" pointer-events="none" opacity="1"/><g><g class="mark-symbol role-legend-symbol" pointer-events="none"><path transform="translate(8,8)" d="M0,-5.969L-6.892,5.969L6.892,5.969Z" fill="#e45756" fill-opacity="0.9" stroke="tool:N" stroke-width="1.5" opacity="1"/></g><g class="mark-text role-legend-label" pointer-events="none"><text text-anchor="start" transform="translate(20,11)" font-family="sans-serif" font-size="10px" fill="#000" opacity="1">bowtie1</text></g></g><path class="foreground" aria-hidden="true" d="" pointer-events="none" display="none"/></g><g transform="translate(0,58)"><path class="background" aria-hidden="true" d="M0,0h93.9111328125v16.392024376045114h-93.9111328125Z" pointer-events="none" opacity="1"/><g><g class="mark-symbol role-legend-symbol" pointer-events="none"><path transform="translate(8,8)" d="M-6.892,-2.757L-6.892,2.757L-2.757,2.757L-2.757,6.892L2.757,6.892L2.757,2.757L6.892,2.757L6.892,-2.757L2.757,-2.757L2.757,-6.892L-2.757,-6.892L-2.757,-2.757Z" fill="#72b7b2" fill-opacity="0.9" stroke="tool:N" stroke-width="1.5" opacity="1"/></g><g class="mark-text role-legend-label" pointer-events="none"><text text-anchor="start" transform="translate(20,11)" font-family="sans-serif" font-size="10px" fill="#000" opacity="1">bowtie2</text></g></g><path class="foreground" aria-hidden="true" d="" pointer-events="none" display="none"/></g><g transform="translate(0,78)"><path class="background" aria-hidden="true" d="M0,0h93.9111328125v16.392024376045114h-93.9111328125Z" pointer-events="none" opacity="1"/><g><g class="mark-symbol role-legend-symbol" pointer-events="none"><path transform="translate(8,8)" d="M-6.892,0L0,-6.892L6.892,0L0,6.892Z" fill="#54a24b" fill-opacity="0.9" stroke="tool:N" stroke-width="1.5" opacity="1"/></g><g class="mark-text role-legend-label" pointer-events="none"><text text-anchor="start" transform="translate(20,11)" font-family="sans-serif" font-size="10px" fill="#000" opacity="1">lexicmap</text></g></g><path class="foreground" aria-hidden="true" d="" pointer-events="none" display="none"/></g><g transform="translate(0,98)"><path class="background" aria-hidden="true" d="M0,0h93.9111328125v16.392024376045114h-93.9111328125Z" pointer-events="none" opacity="1"/><g><g class="mark-symbol role-legend-symbol" pointer-events="none"><path transform="translate(8,8)" d="M5.969,0L-5.969,-6.892L-5.969,6.892Z" fill="#eeca3b" fill-opacity="0.9" stroke="tool:N" stroke-width="1.5" opacity="1"/></g><g class="mark-text role-legend-label" pointer-events="none"><text text-anchor="start" transform="translate(20,11)" font-family="sans-serif" font-size="10px" fill="#000" opacity="1">minimap2</text></g></g><path class="foreground" aria-hidden="true" d="" pointer-events="none" display="none"/></g><g transform="translate(0,117)"><path class="background" aria-hidden="true" d="M0,0h93.9111328125v15.468668193156645h-93.9111328125Z" pointer-events="none" opacity="1"/><g><g class="mark-symbol role-legend-symbol" pointer-events="none"><path transform="translate(8,8)" d="M0,5.969L-6.892,-5.969L6.892,-5.969Z" fill="#b279a2" fill-opacity="0.9" stroke="tool:N" stroke-width="1.5" opacity="1"/></g><g class="mark-text role-legend-label" pointer-events="none"><text text-anchor="start" transform="translate(20,11)" font-family="sans-serif" font-size="10px" fill="#000" opacity="1">mmseqs2</text></g></g><path class="foreground" aria-hidden="true" d="" pointer-events="none" display="none"/></g><g transform="translate(0,136)"><path class="background" aria-hidden="true" d="M0,0h93.9111328125v16.3920243760451h-93.9111328125Z" pointer-events="none" opacity="1"/><g><g class="mark-symbol role-legend-symbol" pointer-events="none"><path transform="translate(8,8)" d="M-5.969,0L5.969,-6.892L5.969,6.892Z" fill="#ff9da6" fill-opacity="0.9" stroke="tool:N" stroke-width="1.5" opacity="1"/></g><g class="mark-text role-legend-label" pointer-events="none"><text text-anchor="start" transform="translate(20,11)" font-family="sans-serif" font-size="10px" fill="#000" opacity="1">mummer4</text></g></g><path class="foreground" aria-hidden="true" d="" pointer-events="none" display="none"/></g><g transform="translate(0,156)"><path class="background" aria-hidden="true" d="M0,0h93.9111328125v16.3920243760451h-93.9111328125Z" pointer-events="none" opacity="1"/><g><g class="mark-symbol role-legend-symbol" pointer-events="none"><path transform="translate(8,8)" d="M6.892,0A6.892,6.892,0,1,1,-6.892,0A6.892,6.892,0,1,1,6.892,0" fill="#9d755d" fill-opacity="0.9" stroke="tool:N" stroke-width="1.5" opacity="1"/></g><g class="mark-text role-legend-label" pointer-events="none"><text text-anchor="start" transform="translate(20,11)" font-family="sans-serif" font-size="10px" fill="#000" opacity="1">strobealign</text></g></g><path class="foreground" aria-hidden="true" d="" pointer-events="none" display="none"/></g></g></g><path class="foreground" aria-hidden="true" d="" pointer-events="none" display="none"/></g></g><g class="mark-text role-legend-title" pointer-events="none"><text text-anchor="start" transform="translate(0,9)" font-family="sans-serif" font-size="11px" font-weight="bold" fill="#000" opacity="1">Tool</text></g></g><path class="foreground" aria-hidden="true" d="" pointer-events="none" display="none"/></g></g></g><path class="foreground" aria-hidden="true" d="" display="none"/></g></g></g></svg>